<svg width="17" height="16" viewBox="0 0 17 16" fill="none" xmlns="http://www.w3.org/2000/svg">
<path fill-rule="evenodd" clip-rule="evenodd" d="M5.36872 0.168162C6.17271 0.13115 6.42906 0.122925 8.47708 0.122925C10.5251 0.122925 10.7815 0.131835 11.5848 0.168162C12.3881 0.204489 12.9364 0.332662 13.4162 0.51841C13.9186 0.708271 14.3744 1.00506 14.7514 1.38889C15.1352 1.76518 15.4313 2.2203 15.6205 2.7234C15.8069 3.20319 15.9344 3.75152 15.9714 4.55346C16.0084 5.35882 16.0167 5.61517 16.0167 7.66251C16.0167 9.71053 16.0078 9.96688 15.9714 10.7709C15.9351 11.5728 15.8069 12.1211 15.6205 12.6009C15.4313 13.1041 15.1347 13.56 14.7514 13.9368C14.3744 14.3206 13.9186 14.6167 13.4162 14.8059C12.9364 14.9924 12.3881 15.1198 11.5861 15.1569C10.7815 15.1939 10.5251 15.2021 8.47708 15.2021C6.42906 15.2021 6.17271 15.1932 5.36872 15.1569C4.56678 15.1205 4.01845 14.9924 3.53866 14.8059C3.03551 14.6167 2.57964 14.3201 2.20278 13.9368C1.81921 13.5603 1.52238 13.1046 1.33299 12.6016C1.14724 12.1218 1.01975 11.5735 0.982737 10.7716C0.945725 9.96619 0.9375 9.70985 0.9375 7.66251C0.9375 5.61448 0.94641 5.35814 0.982737 4.55483C1.01906 3.75152 1.14724 3.20319 1.33299 2.7234C1.52266 2.22036 1.81971 1.76471 2.20346 1.3882C2.57979 1.00471 3.0352 0.707889 3.53797 0.51841C4.01776 0.332662 4.5661 0.205175 5.36803 0.168162H5.36872ZM11.5238 1.52529C10.7287 1.48896 10.4902 1.48142 8.47708 1.48142C6.46401 1.48142 6.22549 1.48896 5.43041 1.52529C4.69495 1.55887 4.29604 1.68156 4.0301 1.78506C3.67848 1.92214 3.42693 2.08459 3.16305 2.34847C2.9129 2.59183 2.72039 2.88809 2.59964 3.21552C2.49614 3.48147 2.37345 3.88038 2.33986 4.61583C2.30354 5.41091 2.296 5.64944 2.296 7.66251C2.296 9.67558 2.30354 9.9141 2.33986 10.7092C2.37345 11.4446 2.49614 11.8435 2.59964 12.1095C2.72027 12.4364 2.91287 12.7332 3.16305 12.9765C3.40637 13.2267 3.70316 13.4193 4.0301 13.54C4.29604 13.6435 4.69495 13.7661 5.43041 13.7997C6.22549 13.8361 6.46333 13.8436 8.47708 13.8436C10.4908 13.8436 10.7287 13.8361 11.5238 13.7997C12.2592 13.7661 12.6581 13.6435 12.9241 13.54C13.2757 13.4029 13.5272 13.2404 13.7911 12.9765C14.0413 12.7332 14.2339 12.4364 14.3545 12.1095C14.458 11.8435 14.5807 11.4446 14.6143 10.7092C14.6506 9.9141 14.6582 9.67558 14.6582 7.66251C14.6582 5.64944 14.6506 5.41091 14.6143 4.61583C14.5807 3.88038 14.458 3.48147 14.3545 3.21552C14.2174 2.86391 14.055 2.61236 13.7911 2.34847C13.5477 2.09834 13.2515 1.90584 12.9241 1.78506C12.6581 1.68156 12.2592 1.55887 11.5238 1.52529ZM7.51407 9.98676C8.05189 10.2106 8.65075 10.2408 9.20837 10.0722C9.766 9.90363 10.2478 9.54666 10.5714 9.06229C10.8951 8.57793 11.0406 7.99622 10.983 7.41651C10.9254 6.83681 10.6684 6.29508 10.2557 5.88385C9.9927 5.62098 9.67465 5.4197 9.32449 5.29449C8.97432 5.16929 8.60075 5.12329 8.23067 5.15979C7.86059 5.19629 7.50321 5.31439 7.18425 5.50559C6.86529 5.69679 6.5927 5.95633 6.38608 6.26553C6.17947 6.57472 6.04398 6.92588 5.98937 7.29373C5.93476 7.66157 5.96239 8.03695 6.07027 8.39283C6.17815 8.74872 6.36359 9.07625 6.61324 9.35187C6.8629 9.62748 7.17056 9.84432 7.51407 9.98676ZM5.73679 4.92221C6.09665 4.56235 6.52386 4.27689 6.99405 4.08214C7.46423 3.88738 7.96816 3.78714 8.47708 3.78714C8.986 3.78714 9.48994 3.88738 9.96012 4.08214C10.4303 4.27689 10.8575 4.56235 11.2174 4.92221C11.5772 5.28207 11.8627 5.70929 12.0575 6.17947C12.2522 6.64965 12.3524 7.15359 12.3524 7.66251C12.3524 8.17143 12.2522 8.67536 12.0575 9.14555C11.8627 9.61573 11.5772 10.0429 11.2174 10.4028C10.4906 11.1296 9.50489 11.5379 8.47708 11.5379C7.44927 11.5379 6.46356 11.1296 5.73679 10.4028C5.01002 9.67603 4.60172 8.69032 4.60172 7.66251C4.60172 6.6347 5.01002 5.64898 5.73679 4.92221ZM13.2119 4.36428C13.3011 4.28016 13.3725 4.179 13.4219 4.06679C13.4713 3.95459 13.4976 3.83361 13.4994 3.71103C13.5012 3.58845 13.4784 3.46676 13.4323 3.35316C13.3862 3.23956 13.3178 3.13637 13.2311 3.04968C13.1444 2.963 13.0412 2.89458 12.9276 2.8485C12.814 2.80241 12.6923 2.77958 12.5698 2.78137C12.4472 2.78316 12.3262 2.80952 12.214 2.8589C12.1018 2.90828 12.0006 2.97967 11.9165 3.06885C11.7529 3.24228 11.6633 3.47264 11.6668 3.71103C11.6703 3.94943 11.7665 4.17708 11.9351 4.34567C12.1037 4.51426 12.3314 4.6105 12.5698 4.61398C12.8081 4.61746 13.0385 4.52788 13.2119 4.36428Z" fill="#FE0083"/>
</svg>
