<svg width="16" height="16" viewBox="0 0 16 16" fill="none" xmlns="http://www.w3.org/2000/svg">
<path fill-rule="evenodd" clip-rule="evenodd" d="M0.668762 1.38272C0.668762 1.0486 0.801491 0.72817 1.03775 0.491912C1.27401 0.255655 1.59444 0.122926 1.92856 0.122926H14.4868C14.6523 0.122656 14.8163 0.155047 14.9694 0.218245C15.1224 0.281443 15.2615 0.374207 15.3787 0.491226C15.4958 0.608244 15.5887 0.74722 15.6521 0.900196C15.7155 1.05317 15.748 1.21714 15.7479 1.38272V13.9409C15.7481 14.1065 15.7156 14.2706 15.6524 14.4236C15.5891 14.5767 15.4963 14.7157 15.3792 14.8329C15.2621 14.95 15.1231 15.0429 14.9701 15.1063C14.8171 15.1696 14.6531 15.2022 14.4874 15.2021H1.92856C1.76306 15.2021 1.59919 15.1695 1.4463 15.1061C1.29341 15.0428 1.1545 14.9499 1.03751 14.8329C0.920514 14.7158 0.827732 14.5768 0.764462 14.4239C0.701192 14.271 0.668672 14.1071 0.668762 13.9416V1.38272ZM6.63737 5.8722H8.67923V6.89759C8.97396 6.30813 9.72791 5.77761 10.8609 5.77761C13.033 5.77761 13.5477 6.95173 13.5477 9.106V13.0965H11.3496V9.59676C11.3496 8.36986 11.0549 7.67759 10.3064 7.67759C9.268 7.67759 8.83619 8.42401 8.83619 9.59676V13.0965H6.63737V5.8722ZM2.86758 13.0026H5.0664V5.77761H2.86758V13.0019V13.0026ZM5.381 3.42115C5.38515 3.60942 5.35165 3.79661 5.28247 3.97176C5.21329 4.1469 5.10982 4.30646 4.97814 4.44107C4.84645 4.57569 4.68921 4.68264 4.51563 4.75566C4.34206 4.82868 4.15564 4.8663 3.96733 4.8663C3.77902 4.8663 3.59261 4.82868 3.41903 4.75566C3.24545 4.68264 3.08821 4.57569 2.95652 4.44107C2.82484 4.30646 2.72137 4.1469 2.65219 3.97176C2.58301 3.79661 2.54951 3.60942 2.55366 3.42115C2.5618 3.05161 2.71431 2.69995 2.97854 2.44148C3.24277 2.183 3.5977 2.03827 3.96733 2.03827C4.33696 2.03827 4.69189 2.183 4.95612 2.44148C5.22035 2.69995 5.37286 3.05161 5.381 3.42115Z" fill="#027CB7"/>
</svg>
