<svg width="14" height="17" viewBox="0 0 14 17" fill="none" xmlns="http://www.w3.org/2000/svg">
<path d="M11.7636 4.24979C11.6595 4.19595 11.5582 4.13693 11.46 4.07296C11.1746 3.88428 10.913 3.66198 10.6807 3.41084C10.0988 2.7453 9.88149 2.07017 9.80198 1.59792H9.80472C9.73824 1.20517 9.76565 0.951569 9.77045 0.951569H7.12132V11.1938C7.12132 11.3308 7.12132 11.4672 7.11583 11.6016C7.11583 11.618 7.11378 11.6331 7.11309 11.6516C7.11309 11.6585 7.11309 11.6667 7.11103 11.6742V11.6804C7.08322 12.0478 6.96552 12.4027 6.76832 12.714C6.57111 13.0252 6.30043 13.2832 5.9801 13.4652C5.64591 13.6553 5.26792 13.755 4.88343 13.7545C3.64968 13.7545 2.64897 12.7483 2.64897 11.5056C2.64897 10.2623 3.64968 9.25608 4.88343 9.25608C5.11716 9.25608 5.34951 9.29309 5.57159 9.36574L5.57502 6.66794C4.90058 6.58093 4.21542 6.63468 3.5628 6.82579C2.91017 7.01691 2.30426 7.34124 1.78329 7.77832C1.3267 8.17486 0.942824 8.64804 0.648927 9.17657C0.537204 9.36917 0.114988 10.1444 0.0642668 11.4014C0.0320522 12.1143 0.246588 12.8545 0.348715 13.1595V13.1664C0.412458 13.346 0.66195 13.9601 1.06772 14.4776C1.39493 14.8929 1.78154 15.2578 2.2151 15.5605V15.5537L2.22127 15.5605C3.503 16.431 4.92524 16.3741 4.92524 16.3741C5.17131 16.3638 5.99586 16.3741 6.93214 15.9307C7.97055 15.4385 8.56138 14.7058 8.56138 14.7058C8.93912 14.2679 9.23951 13.7689 9.44968 13.2301C9.68957 12.5995 9.76908 11.8442 9.76908 11.5426V6.10796C9.80129 6.12715 10.2297 6.41023 10.2297 6.41023C10.2297 6.41023 10.8466 6.80571 11.8082 7.06274C12.4977 7.24575 13.4278 7.28482 13.4278 7.28482V4.65488C13.1023 4.69052 12.4408 4.5877 11.763 4.25048L11.7636 4.24979Z" fill="white"/>
</svg>
