<svg width="18" height="17" viewBox="0 0 18 17" fill="none" xmlns="http://www.w3.org/2000/svg">
<mask id="mask0_301_1769" style="mask-type:luminance" maskUnits="userSpaceOnUse" x="0" y="0" width="18" height="17">
<path d="M0.789581 0.4375H17.2396V16.8875H0.789581V0.4375Z" fill="white"/>
</mask>
<g mask="url(#mask0_301_1769)">
<path d="M16.897 4.89755C16.8038 4.56528 16.6224 4.26446 16.3719 4.02707C16.1144 3.78238 15.7988 3.60735 15.4548 3.51849C14.1676 3.17921 9.01056 3.17921 9.01056 3.17921C6.86063 3.15475 4.71123 3.26233 2.57449 3.50136C2.23054 3.59678 1.91551 3.77572 1.65741 4.02227C1.4038 4.26628 1.22011 4.56718 1.12415 4.89686C0.893642 6.13866 0.781644 7.39956 0.789669 8.66254C0.781444 9.9244 0.893167 11.1849 1.12415 12.4282C1.21805 12.7565 1.40106 13.0561 1.65535 13.298C1.90964 13.54 2.2263 13.7148 2.57449 13.8073C3.87884 14.1459 9.01056 14.1459 9.01056 14.1459C11.1632 14.1704 13.3154 14.0628 15.4548 13.8237C15.7988 13.7349 16.1144 13.5598 16.3719 13.3152C16.6223 13.0778 16.8035 12.7769 16.8963 12.4447C17.1328 11.2034 17.2478 9.94194 17.2397 8.67831C17.2575 7.40933 17.1426 6.14197 16.897 4.89686V4.89755ZM7.37104 11.0094V6.31636L11.6617 8.66323L7.37104 11.0094Z" fill="red"/>
</g>
</svg>
